<svg width="667" height="111" viewBox="0 0 667 111" fill="none" xmlns="http://www.w3.org/2000/svg">
<path d="M9.20312 39.3438C6.46745 39.3438 4.26172 38.4915 2.58594 36.7871C0.924479 35.0827 0.09375 32.6979 0.09375 29.6328V12.1875C0.09375 8.52083 0.817057 5.71354 2.26367 3.76562C3.72461 1.81771 6.09505 0.84375 9.375 0.84375C11.1654 0.84375 12.7552 1.17318 14.1445 1.83203C15.5482 2.49089 16.651 3.47917 17.4531 4.79688C18.2552 6.10026 18.6562 7.7474 18.6562 9.73828V16.2695H11.1367V10.6836C11.1367 9.55208 10.9935 8.79297 10.707 8.40625C10.4206 8.00521 9.97656 7.80469 9.375 7.80469C8.67318 7.80469 8.20052 8.0625 7.95703 8.57812C7.71354 9.07943 7.5918 9.7526 7.5918 10.5977V29.5254C7.5918 30.571 7.74219 31.3086 8.04297 31.7383C8.35807 32.168 8.80208 32.3828 9.375 32.3828C10.0195 32.3828 10.4707 32.1178 10.7285 31.5879C11.0007 31.0579 11.1367 30.3704 11.1367 29.5254V22.7148H18.7422V29.8691C18.7422 33.1921 17.9043 35.6055 16.2285 37.1094C14.5527 38.599 12.2109 39.3438 9.20312 39.3438ZM21.2773 39V1.1875H28.7969V14.7012H32.3633V1.1875H39.8828V39H32.3633V21.8555H28.7969V39H21.2773ZM43.2344 39V1.1875H58.3594V8.49219H50.9258V15.8613H58.0586V22.9727H50.9258V31.6309H58.8535V39H43.2344ZM61.3672 39V1.1875H72.9688C74.9023 1.1875 76.3633 1.63151 77.3516 2.51953C78.3398 3.39323 78.9987 4.625 79.3281 6.21484C79.6719 7.79036 79.8438 9.64518 79.8438 11.7793C79.8438 13.8418 79.5788 15.4889 79.0488 16.7207C78.5332 17.9525 77.5521 18.8047 76.1055 19.2773C77.2943 19.5208 78.125 20.1152 78.5977 21.0605C79.0846 21.9915 79.3281 23.2018 79.3281 24.6914V39H71.873V24.1973C71.873 23.0944 71.6439 22.4141 71.1855 22.1562C70.7415 21.8841 70.0182 21.748 69.0156 21.748V39H61.3672ZM69.0586 15.1953H70.8848C71.9303 15.1953 72.4531 14.0566 72.4531 11.7793C72.4531 10.304 72.3385 9.33724 72.1094 8.87891C71.8802 8.42057 71.4505 8.19141 70.8203 8.19141H69.0586V15.1953ZM91.1445 39.3438C88.4089 39.3438 86.2031 38.4915 84.5273 36.7871C82.8659 35.0827 82.0352 32.6979 82.0352 29.6328V12.1875C82.0352 8.52083 82.7585 5.71354 84.2051 3.76562C85.666 1.81771 88.0365 0.84375 91.3164 0.84375C93.1068 0.84375 94.6966 1.17318 96.0859 1.83203C97.4896 2.49089 98.5924 3.47917 99.3945 4.79688C100.197 6.10026 100.598 7.7474 100.598 9.73828V16.2695H93.0781V10.6836C93.0781 9.55208 92.9349 8.79297 92.6484 8.40625C92.362 8.00521 91.918 7.80469 91.3164 7.80469C90.6146 7.80469 90.1419 8.0625 89.8984 8.57812C89.6549 9.07943 89.5332 9.7526 89.5332 10.5977V29.5254C89.5332 30.571 89.6836 31.3086 89.9844 31.7383C90.2995 32.168 90.7435 32.3828 91.3164 32.3828C91.9609 32.3828 92.4121 32.1178 92.6699 31.5879C92.9421 31.0579 93.0781 30.3704 93.0781 29.5254V22.7148H100.684V29.8691C100.684 33.1921 99.8457 35.6055 98.1699 37.1094C96.4941 38.599 94.1523 39.3438 91.1445 39.3438ZM103.219 39V1.1875H110.738V14.7012H114.305V1.1875H121.824V39H114.305V21.8555H110.738V39H103.219ZM125.176 39V1.1875H140.301V8.49219H132.867V15.8613H140V22.9727H132.867V31.6309H140.795V39H125.176ZM142.32 39V32.125L150.979 8.14844H143.158V1.1875H158.949V7.80469L150.141 32.0391H158.584V39H142.32ZM171.668 39V1.1875H181.658C183.749 1.1875 185.404 1.65299 186.621 2.58398C187.853 3.51497 188.734 4.83984 189.264 6.55859C189.794 8.27734 190.059 10.3255 190.059 12.7031C190.059 14.9948 189.837 16.9928 189.393 18.6973C188.949 20.3874 188.154 21.6979 187.008 22.6289C185.876 23.5599 184.265 24.0254 182.174 24.0254H179.102V39H171.668ZM179.102 17.2363H179.531C180.935 17.2363 181.794 16.8424 182.109 16.0547C182.424 15.2669 182.582 14.1068 182.582 12.5742C182.582 11.1419 182.424 10.0391 182.109 9.26562C181.809 8.47786 181.085 8.08398 179.939 8.08398H179.102V17.2363ZM190.789 39L194.441 1.1875H207.268L210.855 39H203.701L203.164 32.8984H198.609L198.137 39H190.789ZM199.146 26.8613H202.584L200.93 7.63281H200.586L199.146 26.8613ZM213.176 39V1.1875H224.777C226.711 1.1875 228.172 1.63151 229.16 2.51953C230.148 3.39323 230.807 4.625 231.137 6.21484C231.48 7.79036 231.652 9.64518 231.652 11.7793C231.652 13.8418 231.387 15.4889 230.857 16.7207C230.342 17.9525 229.361 18.8047 227.914 19.2773C229.103 19.5208 229.934 20.1152 230.406 21.0605C230.893 21.9915 231.137 23.2018 231.137 24.6914V39H223.682V24.1973C223.682 23.0944 223.452 22.4141 222.994 22.1562C222.55 21.8841 221.827 21.748 220.824 21.748V39H213.176ZM220.867 15.1953H222.693C223.739 15.1953 224.262 14.0566 224.262 11.7793C224.262 10.304 224.147 9.33724 223.918 8.87891C223.689 8.42057 223.259 8.19141 222.629 8.19141H220.867V15.1953ZM234.145 39V1.1875H245.66L248.84 24.2402L251.998 1.1875H263.621V39H256.703V11.7578L252.363 39H245.574L240.977 11.7578V39H234.145ZM266.629 39V1.1875H273.934V39H266.629ZM287.254 39V1.1875H297.244C299.335 1.1875 300.99 1.65299 302.207 2.58398C303.439 3.51497 304.32 4.83984 304.85 6.55859C305.38 8.27734 305.645 10.3255 305.645 12.7031C305.645 14.9948 305.423 16.9928 304.979 18.6973C304.535 20.3874 303.74 21.6979 302.594 22.6289C301.462 23.5599 299.851 24.0254 297.76 24.0254H294.688V39H287.254ZM294.688 17.2363H295.117C296.521 17.2363 297.38 16.8424 297.695 16.0547C298.01 15.2669 298.168 14.1068 298.168 12.5742C298.168 11.1419 298.01 10.0391 297.695 9.26562C297.395 8.47786 296.671 8.08398 295.525 8.08398H294.688V17.2363ZM308.051 39V1.1875H315.613V32.5547H323.391V39H308.051ZM334.283 39.3438C331.132 39.3438 328.812 38.4629 327.322 36.7012C325.833 34.9251 325.088 32.3184 325.088 28.8809V1.1875H332.436V28.5801C332.436 29.2103 332.471 29.819 332.543 30.4062C332.615 30.9792 332.779 31.4518 333.037 31.8242C333.295 32.1966 333.71 32.3828 334.283 32.3828C334.87 32.3828 335.293 32.2038 335.551 31.8457C335.809 31.4733 335.966 30.9935 336.023 30.4062C336.095 29.819 336.131 29.2103 336.131 28.5801V1.1875H343.479V28.8809C343.479 32.3184 342.734 34.9251 341.244 36.7012C339.755 38.4629 337.434 39.3438 334.283 39.3438ZM355.359 39.3438C351.908 39.3438 349.415 38.4844 347.883 36.7656C346.365 35.0469 345.605 32.3112 345.605 28.5586V24.8633H353.082V29.5898C353.082 30.4635 353.211 31.151 353.469 31.6523C353.741 32.1393 354.206 32.3828 354.865 32.3828C355.553 32.3828 356.025 32.1823 356.283 31.7812C356.555 31.3802 356.691 30.7214 356.691 29.8047C356.691 28.6445 356.577 27.6777 356.348 26.9043C356.118 26.1165 355.717 25.3717 355.145 24.6699C354.586 23.9538 353.805 23.123 352.803 22.1777L349.408 18.9551C346.873 16.5632 345.605 13.8275 345.605 10.748C345.605 7.52539 346.35 5.06901 347.84 3.37891C349.344 1.6888 351.514 0.84375 354.35 0.84375C357.816 0.84375 360.272 1.76758 361.719 3.61523C363.18 5.46289 363.91 8.27018 363.91 12.0371H356.219V9.4375C356.219 8.92188 356.068 8.52083 355.768 8.23438C355.481 7.94792 355.087 7.80469 354.586 7.80469C353.984 7.80469 353.54 7.97656 353.254 8.32031C352.982 8.64974 352.846 9.07943 352.846 9.60938C352.846 10.1393 352.989 10.7122 353.275 11.3281C353.562 11.944 354.128 12.653 354.973 13.4551L359.334 17.6445C360.208 18.4753 361.01 19.3561 361.74 20.2871C362.471 21.2038 363.058 22.278 363.502 23.5098C363.946 24.7272 364.168 26.2168 364.168 27.9785C364.168 31.5306 363.509 34.3164 362.191 36.3359C360.888 38.3411 358.611 39.3438 355.359 39.3438ZM377.016 39V1.1875H387.414C390.135 1.1875 392.184 1.94661 393.559 3.46484C394.934 4.96875 395.621 7.17448 395.621 10.082V27.7852C395.621 31.3659 394.991 34.1302 393.73 36.0781C392.484 38.026 390.293 39 387.156 39H377.016ZM384.621 32.3184H385.932C387.321 32.3184 388.016 31.6452 388.016 30.2988V10.791C388.016 9.5306 387.844 8.72135 387.5 8.36328C387.171 7.99089 386.49 7.80469 385.459 7.80469H384.621V32.3184ZM398.715 39V1.1875H413.84V8.49219H406.406V15.8613H413.539V22.9727H406.406V31.6309H414.334V39H398.715ZM430.705 39V9.86719C430.189 10.4831 429.48 10.9844 428.578 11.3711C427.676 11.7435 426.824 11.9297 426.021 11.9297V5.89258C426.781 5.77799 427.597 5.53451 428.471 5.16211C429.344 4.77539 430.154 4.2526 430.898 3.59375C431.658 2.92057 432.238 2.11133 432.639 1.16602H438.719V39H430.705ZM450.922 39.5371C448.014 39.5371 445.637 38.821 443.789 37.3887C441.956 35.9421 441.039 33.7292 441.039 30.75V25.1211H448.902V28.3652C448.902 29.0384 448.938 29.6901 449.01 30.3203C449.096 30.9505 449.282 31.4661 449.568 31.8672C449.855 32.2682 450.306 32.4688 450.922 32.4688C451.738 32.4688 452.275 32.1966 452.533 31.6523C452.791 31.0938 452.92 30.3848 452.92 29.5254V22.0918C452.92 21.4759 452.877 20.8672 452.791 20.2656C452.719 19.6641 452.548 19.1628 452.275 18.7617C452.003 18.3607 451.566 18.1602 450.965 18.1602C449.533 18.1602 448.816 19.1986 448.816 21.2754H441.877V1.16602H459.902V8.25586H449.053V13.584C449.425 13.1257 449.926 12.7246 450.557 12.3809C451.201 12.0228 451.953 11.8438 452.812 11.8438C454.531 11.8438 455.928 12.1732 457.002 12.832C458.09 13.4909 458.921 14.4076 459.494 15.582C460.081 16.7565 460.482 18.1172 460.697 19.6641C460.926 21.2109 461.041 22.8724 461.041 24.6484C461.041 26.9258 460.919 28.9811 460.676 30.8145C460.447 32.6335 459.981 34.1947 459.279 35.498C458.592 36.8014 457.575 37.804 456.229 38.5059C454.896 39.1934 453.128 39.5371 450.922 39.5371ZM472.664 39.3438C469.47 39.3438 466.999 38.4486 465.252 36.6582C463.519 34.8678 462.652 32.2897 462.652 28.9238V11.8652C462.652 8.31315 463.476 5.5918 465.123 3.70117C466.785 1.79622 469.298 0.84375 472.664 0.84375C476.044 0.84375 478.558 1.79622 480.205 3.70117C481.852 5.5918 482.676 8.31315 482.676 11.8652V28.9238C482.676 32.2897 481.809 34.8678 480.076 36.6582C478.343 38.4486 475.872 39.3438 472.664 39.3438ZM472.664 32.3828C473.251 32.3828 473.71 32.1178 474.039 31.5879C474.368 31.0579 474.533 30.4635 474.533 29.8047V11.1348C474.533 10.2467 474.433 9.47331 474.232 8.81445C474.046 8.14128 473.523 7.80469 472.664 7.80469C471.805 7.80469 471.275 8.14128 471.074 8.81445C470.888 9.47331 470.795 10.2467 470.795 11.1348V29.8047C470.795 30.4635 470.96 31.0579 471.289 31.5879C471.633 32.1178 472.091 32.3828 472.664 32.3828ZM494.406 39.3438C491.212 39.3438 488.742 38.4486 486.994 36.6582C485.261 34.8678 484.395 32.2897 484.395 28.9238V11.8652C484.395 8.31315 485.218 5.5918 486.865 3.70117C488.527 1.79622 491.04 0.84375 494.406 0.84375C497.786 0.84375 500.3 1.79622 501.947 3.70117C503.594 5.5918 504.418 8.31315 504.418 11.8652V28.9238C504.418 32.2897 503.551 34.8678 501.818 36.6582C500.085 38.4486 497.615 39.3438 494.406 39.3438ZM494.406 32.3828C494.993 32.3828 495.452 32.1178 495.781 31.5879C496.111 31.0579 496.275 30.4635 496.275 29.8047V11.1348C496.275 10.2467 496.175 9.47331 495.975 8.81445C495.788 8.14128 495.266 7.80469 494.406 7.80469C493.547 7.80469 493.017 8.14128 492.816 8.81445C492.63 9.47331 492.537 10.2467 492.537 11.1348V29.8047C492.537 30.4635 492.702 31.0579 493.031 31.5879C493.375 32.1178 493.833 32.3828 494.406 32.3828ZM517.266 39V1.1875H528.867C530.801 1.1875 532.262 1.63151 533.25 2.51953C534.238 3.39323 534.897 4.625 535.227 6.21484C535.57 7.79036 535.742 9.64518 535.742 11.7793C535.742 13.8418 535.477 15.4889 534.947 16.7207C534.432 17.9525 533.451 18.8047 532.004 19.2773C533.193 19.5208 534.023 20.1152 534.496 21.0605C534.983 21.9915 535.227 23.2018 535.227 24.6914V39H527.771V24.1973C527.771 23.0944 527.542 22.4141 527.084 22.1562C526.64 21.8841 525.917 21.748 524.914 21.748V39H517.266ZM524.957 15.1953H526.783C527.829 15.1953 528.352 14.0566 528.352 11.7793C528.352 10.304 528.237 9.33724 528.008 8.87891C527.779 8.42057 527.349 8.19141 526.719 8.19141H524.957V15.1953ZM538.234 39V1.1875H553.359V8.49219H545.926V15.8613H553.059V22.9727H545.926V31.6309H553.854V39H538.234ZM565.176 39.3438C562.44 39.3438 560.234 38.4915 558.559 36.7871C556.897 35.0827 556.066 32.6979 556.066 29.6328V12.1875C556.066 8.52083 556.79 5.71354 558.236 3.76562C559.697 1.81771 562.068 0.84375 565.348 0.84375C567.138 0.84375 568.728 1.17318 570.117 1.83203C571.521 2.49089 572.624 3.47917 573.426 4.79688C574.228 6.10026 574.629 7.7474 574.629 9.73828V16.2695H567.109V10.6836C567.109 9.55208 566.966 8.79297 566.68 8.40625C566.393 8.00521 565.949 7.80469 565.348 7.80469C564.646 7.80469 564.173 8.0625 563.93 8.57812C563.686 9.07943 563.564 9.7526 563.564 10.5977V29.5254C563.564 30.571 563.715 31.3086 564.016 31.7383C564.331 32.168 564.775 32.3828 565.348 32.3828C565.992 32.3828 566.443 32.1178 566.701 31.5879C566.973 31.0579 567.109 30.3704 567.109 29.5254V22.7148H574.715V29.8691C574.715 33.1921 573.877 35.6055 572.201 37.1094C570.525 38.599 568.184 39.3438 565.176 39.3438ZM577.25 39V1.1875H592.375V8.49219H584.941V15.8613H592.074V22.9727H584.941V31.6309H592.869V39H577.25ZM598.627 39V8.44922H594.137V1.1875H610.68V8.44922H606.189V39H598.627ZM616.029 39V8.44922H611.539V1.1875H628.082V8.44922H623.592V39H616.029ZM630.188 39V1.1875H645.312V8.49219H637.879V15.8613H645.012V22.9727H637.879V31.6309H645.807V39H630.188ZM657.301 39.3438C653.849 39.3438 651.357 38.4844 649.824 36.7656C648.306 35.0469 647.547 32.3112 647.547 28.5586V24.8633H655.023V29.5898C655.023 30.4635 655.152 31.151 655.41 31.6523C655.682 32.1393 656.148 32.3828 656.807 32.3828C657.494 32.3828 657.967 32.1823 658.225 31.7812C658.497 31.3802 658.633 30.7214 658.633 29.8047C658.633 28.6445 658.518 27.6777 658.289 26.9043C658.06 26.1165 657.659 25.3717 657.086 24.6699C656.527 23.9538 655.747 23.123 654.744 22.1777L651.35 18.9551C648.814 16.5632 647.547 13.8275 647.547 10.748C647.547 7.52539 648.292 5.06901 649.781 3.37891C651.285 1.6888 653.455 0.84375 656.291 0.84375C659.757 0.84375 662.214 1.76758 663.66 3.61523C665.121 5.46289 665.852 8.27018 665.852 12.0371H658.16V9.4375C658.16 8.92188 658.01 8.52083 657.709 8.23438C657.423 7.94792 657.029 7.80469 656.527 7.80469C655.926 7.80469 655.482 7.97656 655.195 8.32031C654.923 8.64974 654.787 9.07943 654.787 9.60938C654.787 10.1393 654.93 10.7122 655.217 11.3281C655.503 11.944 656.069 12.653 656.914 13.4551L661.275 17.6445C662.149 18.4753 662.951 19.3561 663.682 20.2871C664.412 21.2038 664.999 22.278 665.443 23.5098C665.887 24.7272 666.109 26.2168 666.109 27.9785C666.109 31.5306 665.451 34.3164 664.133 36.3359C662.829 38.3411 660.552 39.3438 657.301 39.3438ZM30.5586 105V67.1875H40.957C43.6784 67.1875 45.7266 67.9466 47.1016 69.4648C48.4766 70.9688 49.1641 73.1745 49.1641 76.082V93.7852C49.1641 97.3659 48.5339 100.13 47.2734 102.078C46.0273 104.026 43.8359 105 40.6992 105H30.5586ZM38.1641 98.3184H39.4746C40.8639 98.3184 41.5586 97.6452 41.5586 96.2988V76.791C41.5586 75.5306 41.3867 74.7214 41.043 74.3633C40.7135 73.9909 40.0332 73.8047 39.002 73.8047H38.1641V98.3184ZM61.002 105.344C57.8509 105.344 55.5306 104.463 54.041 102.701C52.5514 100.925 51.8066 98.3184 51.8066 94.8809V67.1875H59.1543V94.5801C59.1543 95.2103 59.1901 95.819 59.2617 96.4062C59.3333 96.9792 59.498 97.4518 59.7559 97.8242C60.0137 98.1966 60.429 98.3828 61.002 98.3828C61.5892 98.3828 62.0117 98.2038 62.2695 97.8457C62.5273 97.4733 62.6849 96.9935 62.7422 96.4062C62.8138 95.819 62.8496 95.2103 62.8496 94.5801V67.1875H70.1973V94.8809C70.1973 98.3184 69.4525 100.925 67.9629 102.701C66.4733 104.463 64.153 105.344 61.002 105.344ZM100.125 109.018L94.1094 105.064C93.4219 105.251 92.7129 105.344 91.9824 105.344C89.0319 105.344 86.776 104.47 85.2148 102.723C83.668 100.975 82.8945 98.4258 82.8945 95.0742V76.791C82.8945 73.5397 83.6895 71.069 85.2793 69.3789C86.8835 67.6888 89.1966 66.8438 92.2188 66.8438C95.2409 66.8438 97.5469 67.6888 99.1367 69.3789C100.741 71.069 101.543 73.5397 101.543 76.791V95.0742C101.543 98.1966 100.841 100.653 99.4375 102.443L102.682 104.506L100.125 109.018ZM92.2188 98.3828C92.763 98.3828 93.1497 98.1823 93.3789 97.7812C93.6224 97.3802 93.7728 96.8861 93.8301 96.2988C93.9017 95.7116 93.9375 95.1458 93.9375 94.6016V76.9199C93.9375 76.1178 93.8229 75.4017 93.5938 74.7715C93.3789 74.127 92.9062 73.8047 92.1758 73.8047C91.431 73.8047 90.944 74.1198 90.7148 74.75C90.4857 75.3659 90.3711 76.082 90.3711 76.8984V94.752C90.3711 95.2533 90.3997 95.7904 90.457 96.3633C90.5286 96.9219 90.6934 97.4017 90.9512 97.8027C91.209 98.1895 91.6315 98.3828 92.2188 98.3828ZM113.896 105.344C110.745 105.344 108.425 104.463 106.936 102.701C105.446 100.925 104.701 98.3184 104.701 94.8809V67.1875H112.049V94.5801C112.049 95.2103 112.085 95.819 112.156 96.4062C112.228 96.9792 112.393 97.4518 112.65 97.8242C112.908 98.1966 113.324 98.3828 113.896 98.3828C114.484 98.3828 114.906 98.2038 115.164 97.8457C115.422 97.4733 115.579 96.9935 115.637 96.4062C115.708 95.819 115.744 95.2103 115.744 94.5801V67.1875H123.092V94.8809C123.092 98.3184 122.347 100.925 120.857 102.701C119.368 104.463 117.048 105.344 113.896 105.344ZM135.016 105.344C131.993 105.344 129.68 104.434 128.076 102.615C126.486 100.782 125.691 98.1393 125.691 94.6875V76.7266C125.691 73.4896 126.479 71.0332 128.055 69.3574C129.645 67.6816 131.965 66.8438 135.016 66.8438C138.066 66.8438 140.38 67.6816 141.955 69.3574C143.545 71.0332 144.34 73.4896 144.34 76.7266V94.6875C144.34 98.1393 143.538 100.782 141.934 102.615C140.344 104.434 138.038 105.344 135.016 105.344ZM135.08 98.3828C136.226 98.3828 136.799 97.2728 136.799 95.0527V76.5977C136.799 74.7357 136.24 73.8047 135.123 73.8047C133.863 73.8047 133.232 74.7572 133.232 76.6621V95.0957C133.232 96.2702 133.376 97.1152 133.662 97.6309C133.949 98.1322 134.421 98.3828 135.08 98.3828ZM150.635 105V74.4492H146.145V67.1875H162.688V74.4492H158.197V105H150.635ZM164.449 105V67.1875H171.754V105H164.449ZM174.762 105V67.1875H185.16C187.882 67.1875 189.93 67.9466 191.305 69.4648C192.68 70.9688 193.367 73.1745 193.367 76.082V93.7852C193.367 97.3659 192.737 100.13 191.477 102.078C190.23 104.026 188.039 105 184.902 105H174.762ZM182.367 98.3184H183.678C185.067 98.3184 185.762 97.6452 185.762 96.2988V76.791C185.762 75.5306 185.59 74.7214 185.246 74.3633C184.917 73.9909 184.236 73.8047 183.205 73.8047H182.367V98.3184ZM196.117 105V67.1875H203.422V105H196.117ZM206.43 105V67.1875H221.555V74.4922H214.121V81.8613H221.254V88.9727H214.121V97.6309H222.049V105H206.43ZM224.562 105V67.1875H232.34L235.82 85.2988V67.1875H243.125V105H235.734L231.953 86.0938V105H224.562ZM247.293 110.049L248.711 104.979H245.982V98.5762H254.018V104.785L251.826 110.049H247.293ZM265.855 105.344C262.404 105.344 259.911 104.484 258.379 102.766C256.861 101.047 256.102 98.3112 256.102 94.5586V90.8633H263.578V95.5898C263.578 96.4635 263.707 97.151 263.965 97.6523C264.237 98.1393 264.702 98.3828 265.361 98.3828C266.049 98.3828 266.521 98.1823 266.779 97.7812C267.051 97.3802 267.188 96.7214 267.188 95.8047C267.188 94.6445 267.073 93.6777 266.844 92.9043C266.615 92.1165 266.214 91.3717 265.641 90.6699C265.082 89.9538 264.301 89.123 263.299 88.1777L259.904 84.9551C257.369 82.5632 256.102 79.8275 256.102 76.748C256.102 73.5254 256.846 71.069 258.336 69.3789C259.84 67.6888 262.01 66.8438 264.846 66.8438C268.312 66.8438 270.768 67.7676 272.215 69.6152C273.676 71.4629 274.406 74.2702 274.406 78.0371H266.715V75.4375C266.715 74.9219 266.564 74.5208 266.264 74.2344C265.977 73.9479 265.583 73.8047 265.082 73.8047C264.48 73.8047 264.036 73.9766 263.75 74.3203C263.478 74.6497 263.342 75.0794 263.342 75.6094C263.342 76.1393 263.485 76.7122 263.771 77.3281C264.058 77.944 264.624 78.653 265.469 79.4551L269.83 83.6445C270.704 84.4753 271.506 85.3561 272.236 86.2871C272.967 87.2038 273.554 88.278 273.998 89.5098C274.442 90.7272 274.664 92.2168 274.664 93.9785C274.664 97.5306 274.005 100.316 272.688 102.336C271.384 104.341 269.107 105.344 265.855 105.344ZM276.855 105V67.1875H284.16V105H276.855ZM287.168 105V67.1875H298.684L301.863 90.2402L305.021 67.1875H316.645V105H309.727V77.7578L305.387 105H298.598L294 77.7578V105H287.168ZM319.996 105V67.1875H329.986C332.077 67.1875 333.732 67.653 334.949 68.584C336.181 69.515 337.062 70.8398 337.592 72.5586C338.122 74.2773 338.387 76.3255 338.387 78.7031C338.387 80.9948 338.165 82.9928 337.721 84.6973C337.277 86.3874 336.482 87.6979 335.336 88.6289C334.204 89.5599 332.593 90.0254 330.502 90.0254H327.43V105H319.996ZM327.43 83.2363H327.859C329.263 83.2363 330.122 82.8424 330.438 82.0547C330.753 81.2669 330.91 80.1068 330.91 78.5742C330.91 77.1419 330.753 76.0391 330.438 75.2656C330.137 74.4779 329.413 74.084 328.268 74.084H327.43V83.2363ZM340.793 105V67.1875H348.355V98.5547H356.133V105H340.793ZM358.281 105V67.1875H373.406V74.4922H365.973V81.8613H373.105V88.9727H365.973V97.6309H373.9V105H358.281ZM385.395 105.344C381.943 105.344 379.451 104.484 377.918 102.766C376.4 101.047 375.641 98.3112 375.641 94.5586V90.8633H383.117V95.5898C383.117 96.4635 383.246 97.151 383.504 97.6523C383.776 98.1393 384.242 98.3828 384.9 98.3828C385.588 98.3828 386.061 98.1823 386.318 97.7812C386.59 97.3802 386.727 96.7214 386.727 95.8047C386.727 94.6445 386.612 93.6777 386.383 92.9043C386.154 92.1165 385.753 91.3717 385.18 90.6699C384.621 89.9538 383.84 89.123 382.838 88.1777L379.443 84.9551C376.908 82.5632 375.641 79.8275 375.641 76.748C375.641 73.5254 376.385 71.069 377.875 69.3789C379.379 67.6888 381.549 66.8438 384.385 66.8438C387.851 66.8438 390.307 67.7676 391.754 69.6152C393.215 71.4629 393.945 74.2702 393.945 78.0371H386.254V75.4375C386.254 74.9219 386.104 74.5208 385.803 74.2344C385.516 73.9479 385.122 73.8047 384.621 73.8047C384.02 73.8047 383.576 73.9766 383.289 74.3203C383.017 74.6497 382.881 75.0794 382.881 75.6094C382.881 76.1393 383.024 76.7122 383.311 77.3281C383.597 77.944 384.163 78.653 385.008 79.4551L389.369 83.6445C390.243 84.4753 391.045 85.3561 391.775 86.2871C392.506 87.2038 393.093 88.278 393.537 89.5098C393.981 90.7272 394.203 92.2168 394.203 93.9785C394.203 97.5306 393.544 100.316 392.227 102.336C390.923 104.341 388.646 105.344 385.395 105.344ZM407.051 105V67.1875H422.176V74.4922H414.742V81.8613H421.875V88.9727H414.742V97.6309H422.67V105H407.051ZM428.428 105V74.4492H423.938V67.1875H440.48V74.4492H435.99V105H428.428ZM452.898 105V67.1875H463.297C466.018 67.1875 468.066 67.9466 469.441 69.4648C470.816 70.9688 471.504 73.1745 471.504 76.082V93.7852C471.504 97.3659 470.874 100.13 469.613 102.078C468.367 104.026 466.176 105 463.039 105H452.898ZM460.504 98.3184H461.814C463.204 98.3184 463.898 97.6452 463.898 96.2988V76.791C463.898 75.5306 463.727 74.7214 463.383 74.3633C463.053 73.9909 462.373 73.8047 461.342 73.8047H460.504V98.3184ZM474.598 105V67.1875H489.723V74.4922H482.289V81.8613H489.422V88.9727H482.289V97.6309H490.217V105H474.598ZM477.348 66.0488V61.2578L487.553 56.5742V64.0293L477.348 66.0488ZM492.73 105V67.1875H500.293V98.5547H508.07V105H492.73ZM509.875 105V67.1875H517.18V105H509.875ZM528.996 105.344C526.26 105.344 524.055 104.492 522.379 102.787C520.717 101.083 519.887 98.6979 519.887 95.6328V78.1875C519.887 74.5208 520.61 71.7135 522.057 69.7656C523.518 67.8177 525.888 66.8438 529.168 66.8438C530.958 66.8438 532.548 67.1732 533.938 67.832C535.341 68.4909 536.444 69.4792 537.246 70.7969C538.048 72.1003 538.449 73.7474 538.449 75.7383V82.2695H530.93V76.6836C530.93 75.5521 530.786 74.793 530.5 74.4062C530.214 74.0052 529.77 73.8047 529.168 73.8047C528.466 73.8047 527.993 74.0625 527.75 74.5781C527.507 75.0794 527.385 75.7526 527.385 76.5977V95.5254C527.385 96.571 527.535 97.3086 527.836 97.7383C528.151 98.168 528.595 98.3828 529.168 98.3828C529.812 98.3828 530.264 98.1178 530.521 97.5879C530.794 97.0579 530.93 96.3704 530.93 95.5254V88.7148H538.535V95.8691C538.535 99.1921 537.697 101.605 536.021 103.109C534.346 104.599 532.004 105.344 528.996 105.344ZM540.727 105V67.1875H548.031V105H540.727ZM551.039 105V67.1875H566.164V74.4922H558.73V81.8613H565.863V88.9727H558.73V97.6309H566.658V105H551.039ZM577.916 105.344C574.765 105.344 572.445 104.463 570.955 102.701C569.465 100.925 568.721 98.3184 568.721 94.8809V67.1875H576.068V94.5801C576.068 95.2103 576.104 95.819 576.176 96.4062C576.247 96.9792 576.412 97.4518 576.67 97.8242C576.928 98.1966 577.343 98.3828 577.916 98.3828C578.503 98.3828 578.926 98.2038 579.184 97.8457C579.441 97.4733 579.599 96.9935 579.656 96.4062C579.728 95.819 579.764 95.2103 579.764 94.5801V67.1875H587.111V94.8809C587.111 98.3184 586.367 100.925 584.877 102.701C583.387 104.463 581.067 105.344 577.916 105.344ZM598.992 105.344C595.54 105.344 593.048 104.484 591.516 102.766C589.997 101.047 589.238 98.3112 589.238 94.5586V90.8633H596.715V95.5898C596.715 96.4635 596.844 97.151 597.102 97.6523C597.374 98.1393 597.839 98.3828 598.498 98.3828C599.186 98.3828 599.658 98.1823 599.916 97.7812C600.188 97.3802 600.324 96.7214 600.324 95.8047C600.324 94.6445 600.21 93.6777 599.98 92.9043C599.751 92.1165 599.35 91.3717 598.777 90.6699C598.219 89.9538 597.438 89.123 596.436 88.1777L593.041 84.9551C590.506 82.5632 589.238 79.8275 589.238 76.748C589.238 73.5254 589.983 71.069 591.473 69.3789C592.977 67.6888 595.146 66.8438 597.982 66.8438C601.449 66.8438 603.905 67.7676 605.352 69.6152C606.812 71.4629 607.543 74.2702 607.543 78.0371H599.852V75.4375C599.852 74.9219 599.701 74.5208 599.4 74.2344C599.114 73.9479 598.72 73.8047 598.219 73.8047C597.617 73.8047 597.173 73.9766 596.887 74.3203C596.615 74.6497 596.479 75.0794 596.479 75.6094C596.479 76.1393 596.622 76.7122 596.908 77.3281C597.195 77.944 597.76 78.653 598.605 79.4551L602.967 83.6445C603.84 84.4753 604.643 85.3561 605.373 86.2871C606.104 87.2038 606.691 88.278 607.135 89.5098C607.579 90.7272 607.801 92.2168 607.801 93.9785C607.801 97.5306 607.142 100.316 605.824 102.336C604.521 104.341 602.243 105.344 598.992 105.344ZM610.336 105V67.1875H625.461V74.4922H618.027V81.8613H625.16V88.9727H618.027V97.6309H625.955V105H610.336ZM637.449 105.344C633.997 105.344 631.505 104.484 629.973 102.766C628.454 101.047 627.695 98.3112 627.695 94.5586V90.8633H635.172V95.5898C635.172 96.4635 635.301 97.151 635.559 97.6523C635.831 98.1393 636.296 98.3828 636.955 98.3828C637.643 98.3828 638.115 98.1823 638.373 97.7812C638.645 97.3802 638.781 96.7214 638.781 95.8047C638.781 94.6445 638.667 93.6777 638.438 92.9043C638.208 92.1165 637.807 91.3717 637.234 90.6699C636.676 89.9538 635.895 89.123 634.893 88.1777L631.498 84.9551C628.963 82.5632 627.695 79.8275 627.695 76.748C627.695 73.5254 628.44 71.069 629.93 69.3789C631.434 67.6888 633.604 66.8438 636.439 66.8438C639.906 66.8438 642.362 67.7676 643.809 69.6152C645.27 71.4629 646 74.2702 646 78.0371H638.309V75.4375C638.309 74.9219 638.158 74.5208 637.857 74.2344C637.571 73.9479 637.177 73.8047 636.676 73.8047C636.074 73.8047 635.63 73.9766 635.344 74.3203C635.072 74.6497 634.936 75.0794 634.936 75.6094C634.936 76.1393 635.079 76.7122 635.365 77.3281C635.652 77.944 636.217 78.653 637.062 79.4551L641.424 83.6445C642.298 84.4753 643.1 85.3561 643.83 86.2871C644.561 87.2038 645.148 88.278 645.592 89.5098C646.036 90.7272 646.258 92.2168 646.258 93.9785C646.258 97.5306 645.599 100.316 644.281 102.336C642.978 104.341 640.701 105.344 637.449 105.344Z" fill="#FFD15B"/>
</svg>
